<?xml version="1.0" standalone="no"?>
<!DOCTYPE svg PUBLIC "-//W3C//DTD SVG 20010904//EN" "http://www.w3.org/TR/2001/REC-SVG-20010904/DTD/svg10.dtd">
<!-- Created using Karbon, part of Calligra: http://www.calligra.org/karbon -->
<svg xmlns="http://www.w3.org/2000/svg" xmlns:xlink="http://www.w3.org/1999/xlink" width="576pt" height="576pt">
<defs/>
<g id="layer0">
  <rect id="background" transform="matrix(720 0 0 720 0 0)" fill="#ffffff" width="0.80000000000pt" height="0.80000000000pt"/>
  <g id="content" transform="translate(-34.8633, 56.1473)" fill="none">
   <path id="shape0" transform="matrix(1.24999 0 0 -1.24999 104.342 153.024)" fill="#05386b" stroke="#05386b" stroke-width="0.00000000000" stroke-linecap="butt" stroke-linejoin="miter" stroke-miterlimit="10.43299961090" d="M37.59 18.8L37.57 17.83L37.5 16.87L37.38 15.93L37.21 15.01L37 14.1L36.75 13.21L36.45 12.33L36.12 11.48L35.74 10.65L35.32 9.84L34.87 9.05L34.38 8.29L33.86 7.55L33.3 6.84L32.71 6.16L32.09 5.5L31.43 4.88L30.75 4.29L30.04 3.73L29.31 3.21L28.54 2.72L27.76 2.27L26.95 1.85L26.11 1.48L25.26 1.14L24.39 0.84L23.49 0.59L22.58 0.38L21.66 0.21L20.72 0.1L19.76 0.02L18.8 0C8.41 0 0 8.42 0 18.8C0 29.18 8.41 37.59 18.8 37.59C29.18 37.59 37.59 29.18 37.59 18.8Z"/>
   <path id="shape1" transform="matrix(1.24999 0 0 -1.24999 385.565 -154.424)" fill="#05386b" stroke="#05386b" stroke-width="0.00000000000" stroke-linecap="butt" stroke-linejoin="miter" stroke-miterlimit="10.43299961090" d="M15.84 7.92L15.83 7.52L15.8 7.11L15.75 6.72L15.68 6.33L15.59 5.94L15.48 5.57L15.36 5.2L15.22 4.84L15.06 4.49L14.88 4.15L14.69 3.82L14.49 3.49L14.27 3.18L14.03 2.88L13.78 2.6L13.52 2.32L13.25 2.06L12.96 1.81L12.66 1.57L12.35 1.35L12.03 1.15L11.69 0.96L11.35 0.78L11 0.62L10.64 0.48L10.27 0.36L9.9 0.25L9.52 0.16L9.13 0.09L8.73 0.04L8.33 0.01L7.92 0C3.54 0 0 3.55 0 7.92C0 12.3 3.54 15.85 7.92 15.85C12.29 15.85 15.84 12.3 15.84 7.92Z"/>
   <path id="shape2" transform="matrix(1.24999 0 0 -1.24999 -38.3319 -144.474)" fill="#05386b" stroke="#05386b" stroke-width="0.00000000000" stroke-linecap="butt" stroke-linejoin="miter" stroke-miterlimit="10.43299961090" d="M19.8 9.9L19.79 9.39L19.75 8.89L19.69 8.39L19.6 7.91L19.49 7.43L19.35 6.96L19.2 6.5L19.02 6.05L18.82 5.61L18.6 5.18L18.37 4.77L18.11 4.36L17.83 3.98L17.54 3.6L17.23 3.24L16.9 2.9L16.56 2.57L16.2 2.26L15.82 1.97L15.43 1.69L15.03 1.43L14.62 1.19L14.19 0.97L13.75 0.78L13.3 0.6L12.84 0.44L12.37 0.31L11.89 0.2L11.41 0.11L10.91 0.05L10.41 0.01L9.9 0C4.43 0 0 4.43 0 9.9C0 15.37 4.43 19.8 9.9 19.8C15.37 19.8 19.8 15.37 19.8 9.9Z"/>
   <path id="shape3" transform="matrix(1.24999 0 0 -1.24999 -403.117 -227.823)" fill="#05386b" stroke="#05386b" stroke-width="0.00000000000" stroke-linecap="butt" stroke-linejoin="miter" stroke-miterlimit="10.43299961090" d="M15.85 7.92L15.84 7.51L15.81 7.11L15.76 6.71L15.69 6.32L15.6 5.94L15.49 5.56L15.37 5.2L15.23 4.84L15.07 4.49L14.89 4.14L14.7 3.81L14.5 3.49L14.28 3.18L14.04 2.88L13.79 2.59L13.53 2.32L13.25 2.06L12.97 1.81L12.67 1.57L12.36 1.35L12.03 1.14L11.7 0.95L11.36 0.78L11.01 0.62L10.65 0.48L10.28 0.35L9.91 0.25L9.52 0.16L9.13 0.09L8.74 0.04L8.33 0.01L7.93 0C3.55 0 0 3.54 0 7.92C0 12.3 3.55 15.84 7.93 15.84C12.3 15.84 15.85 12.3 15.85 7.92Z"/>
   <path id="shape4" transform="matrix(1.24999 0 0 -1.24999 532.852 175.187)" fill="#05386b" stroke="#05386b" stroke-width="0.00000000000" stroke-linecap="butt" stroke-linejoin="miter" stroke-miterlimit="10.43299961090" d="M15.84 7.92L15.83 7.51L15.8 7.11L15.75 6.71L15.68 6.32L15.59 5.94L15.49 5.56L15.36 5.2L15.22 4.84L15.06 4.49L14.89 4.14L14.7 3.81L14.49 3.49L14.27 3.18L14.03 2.88L13.78 2.59L13.52 2.32L13.25 2.06L12.96 1.81L12.66 1.57L12.35 1.35L12.03 1.14L11.7 0.95L11.36 0.78L11 0.62L10.64 0.48L10.28 0.35L9.9 0.25L9.52 0.16L9.13 0.09L8.73 0.04L8.33 0.01L7.92 0C3.55 0 0 3.54 0 7.92C0 12.29 3.55 15.84 7.92 15.84C12.3 15.84 15.84 12.29 15.84 7.92Z"/>
   <path id="shape5" transform="matrix(1.24999 0 0 -1.24999 -541.462 528.883)" fill="#ffc80d" stroke="#ffc80d" stroke-width="0.00000000000" stroke-linecap="butt" stroke-linejoin="miter" stroke-miterlimit="10.43299961090" d="M941.597 194.219L941.507 194.759L941.407 195.299L941.297 195.849L941.177 196.399L941.037 196.949L940.897 197.509L940.737 198.059L940.557 198.609L940.367 199.159L940.167 199.699L939.957 200.229L939.717 200.749L939.477 201.249L939.207 201.739L938.927 202.209L938.787 202.439L938.637 202.669C938.037 203.709 937.297 204.589 936.557 205.629C935.817 206.819 934.927 207.999 933.747 208.739C931.517 210.369 928.707 210.369 926.337 211.409C923.817 212.449 921.447 214.079 918.927 214.969C915.077 216.149 910.637 215.709 907.077 213.489C905.007 212.299 903.077 210.819 901.297 209.339C899.517 207.999 898.037 206.079 896.407 204.589C895.667 205.189 894.777 205.039 893.897 204.589C893.007 204.149 892.407 203.259 891.967 202.519C890.927 201.039 889.897 199.559 889.147 197.929C888.407 196.299 888.117 194.369 888.407 192.739C888.857 190.819 887.667 189.039 886.337 187.559C884.117 189.629 881.447 190.819 878.337 190.819C877.147 190.819 875.967 190.669 874.927 190.819C874.037 190.969 873.447 191.409 872.707 191.999C871.227 193.189 870.187 194.669 868.557 195.559C866.777 196.449 864.707 196.449 862.637 196.449C857.007 196.299 850.637 196.299 845.597 193.339C843.667 192.299 842.037 190.669 839.817 189.929C838.337 189.489 836.857 189.339 835.227 189.189C830.777 188.449 827.517 185.779 823.517 183.999C819.077 181.929 814.637 179.709 810.337 177.189C807.517 175.559 804.857 173.779 801.887 172.299C799.377 171.109 796.707 170.079 795.077 167.859C792.257 163.859 787.077 161.779 783.077 158.969C782.337 157.339 780.707 156.299 778.927 155.709C777.147 155.109 775.377 154.669 773.737 153.929C771.817 152.889 770.187 151.409 769.007 149.629C767.817 147.859 766.927 145.779 766.337 143.709C766.187 143.709 766.037 143.559 766.037 143.559L756.407 141.189C756.117 141.779 755.377 142.369 754.777 142.669C753.887 143.259 753.007 143.409 752.117 143.999C750.337 145.189 749.447 147.409 747.667 148.589C746.487 149.339 745.007 149.489 743.517 150.079C742.487 150.519 741.587 151.109 740.557 151.709C739.367 152.449 738.187 153.339 737.007 154.079C736.707 154.219 736.707 154.219 736.707 154.519C736.707 154.819 737.007 155.109 737.147 155.259C738.187 156.449 739.517 157.189 740.557 158.369C741.587 159.559 742.187 161.339 741.297 162.669C741.147 162.819 743.077 165.779 743.227 166.079C743.817 167.259 744.117 168.589 744.407 169.929C745.007 172.589 745.007 175.409 744.407 178.079C743.817 180.589 742.637 182.519 741.447 184.739C740.117 186.969 738.187 188.589 735.817 189.629C734.487 190.219 733.007 190.669 731.367 190.669C730.187 190.669 729.447 190.669 728.407 191.109C727.367 191.559 726.037 191.709 724.857 191.709C722.487 191.859 720.117 191.259 717.887 190.219C714.337 188.589 711.517 185.779 709.587 182.519C708.557 180.739 707.217 179.109 706.487 177.039C705.737 175.109 705.297 173.039 705.297 170.969C705.147 165.629 702.927 160.149 704.857 155.109C703.217 154.219 701.147 154.079 699.367 154.219C697.587 154.219 695.817 154.519 694.037 154.369C692.857 154.219 691.667 153.929 690.637 153.339C689.447 152.589 688.407 151.109 687.517 150.079C686.337 148.589 685.147 147.109 683.967 145.629C682.337 143.559 680.707 141.489 679.077 139.409C678.337 138.369 677.587 137.189 676.707 136.299C676.117 135.559 675.217 135.409 675.077 134.369C674.927 133.629 674.927 132.739 674.487 132.149C674.037 131.559 673.447 131.409 672.857 131.109C670.187 129.929 667.967 128.149 665.447 126.819C662.777 125.339 659.967 123.999 656.847 123.849C655.217 123.709 653.737 123.849 652.117 123.709C651.217 123.709 650.487 123.559 649.587 123.559C648.997 123.559 648.557 123.709 647.967 123.709C647.077 123.709 646.187 123.559 645.447 123.259C644.257 122.969 643.967 123.259 643.217 124.149C642.487 124.889 642.037 125.779 641.447 126.669C640.407 128.449 639.667 130.519 638.637 132.299C637.147 134.819 635.217 137.189 633.297 139.409C632.407 140.589 631.367 141.629 630.187 142.519C627.517 144.739 624.407 147.109 623.217 150.519C622.487 152.739 624.557 154.969 625.737 156.889C627.217 159.409 627.967 162.519 627.817 165.489C627.667 168.889 629.147 171.999 628.257 175.109C627.817 176.449 627.217 177.629 626.487 178.969C625.587 180.449 624.847 182.079 623.517 183.259C621.887 184.889 619.517 185.779 617.297 186.219C616.257 186.519 615.217 186.669 614.187 186.819C612.847 186.969 611.667 187.559 610.337 187.999C605.297 189.629 600.557 187.409 595.967 185.489C593.737 184.589 591.367 183.559 589.887 181.629C588.557 180.149 587.817 178.369 587.217 176.449C585.887 172.449 585.297 167.999 587.217 164.299C587.967 162.969 588.257 161.489 588.707 159.999C589.147 158.369 588.117 157.039 587.817 155.409C587.667 154.969 587.667 154.519 587.817 154.079C588.117 153.189 589.587 153.039 590.187 152.299C590.927 151.409 590.187 150.079 590.927 149.189C591.217 148.889 591.517 148.589 591.817 148.299C591.967 146.969 591.967 145.489 591.967 144.299C588.407 142.969 584.557 141.189 581.447 138.969C579.967 137.929 578.927 136.299 578.927 134.519C578.337 134.669 577.737 134.819 577.297 134.819C576.707 134.819 576.117 134.519 575.817 133.929C575.667 133.489 575.667 132.889 575.667 132.449C575.667 130.819 574.477 129.339 573.297 128.149C570.627 125.779 567.967 123.999 564.407 122.969C563.367 122.669 562.187 122.519 561.147 121.929C559.217 120.889 557.887 118.969 555.817 118.669C554.777 118.519 553.737 118.969 552.707 118.819C551.217 118.819 549.887 118.079 548.707 117.339C547.517 116.599 546.327 115.559 544.997 114.969C544.117 114.519 542.927 114.079 541.737 114.369C540.847 114.519 540.407 114.669 539.367 114.519C536.997 113.929 534.927 112.299 532.557 113.339C531.667 113.629 530.927 114.079 530.037 114.369C529.587 114.519 529.147 114.519 528.557 114.519C527.217 114.519 526.037 114.519 524.707 114.369C523.217 114.219 521.887 112.889 520.407 112.449C520.107 111.999 519.517 111.409 519.077 110.969L389.147 106.819C388.847 106.969 388.697 106.969 388.407 107.109C386.777 107.999 384.997 108.889 383.217 109.479C381.437 109.629 379.807 109.189 378.187 108.449C376.997 107.849 375.217 105.779 373.737 106.669C373.587 106.819 373.287 106.969 373.147 107.109C372.557 107.559 371.667 107.559 370.777 107.409C370.037 107.259 369.147 107.259 368.407 107.559C368.407 107.559 368.407 107.699 368.557 107.699C367.517 108.889 365.887 108.739 364.407 108.739C360.107 109.189 355.807 110.369 352.257 112.739C349.887 114.369 347.957 116.449 346.627 118.969C346.037 120.149 345.887 121.629 345.147 122.669C344.407 123.849 343.067 124.589 342.037 125.189C339.667 126.519 337.287 127.999 334.777 129.339C333.737 129.929 332.847 130.519 331.957 131.109C330.917 131.849 329.887 132.299 328.997 133.189C328.257 133.929 328.847 134.219 329.437 134.669C330.187 135.109 330.477 135.999 330.777 136.739C331.217 137.929 331.667 139.109 332.107 140.299C332.407 141.039 332.697 141.929 332.847 142.669C332.997 143.559 332.847 143.849 332.407 144.739C331.807 146.079 331.807 147.409 331.957 148.739C332.107 150.369 331.667 152.449 331.217 154.079C330.917 155.109 330.627 156.149 330.187 157.039C329.887 157.779 329.587 158.669 329.147 159.409C327.367 162.369 324.107 164.449 320.847 165.339C318.477 165.929 316.257 166.519 313.887 166.369C310.917 166.079 308.107 165.189 305.587 163.709C303.067 162.219 300.997 159.999 299.807 157.339C298.187 153.629 298.477 149.489 298.777 145.629C298.777 145.039 298.327 144.589 298.477 143.999C298.627 143.409 299.067 142.969 299.217 142.369C299.807 140.889 300.407 139.259 300.847 137.779C300.997 137.489 301.147 137.039 301.287 136.739C301.437 136.449 301.887 136.299 302.187 136.149C302.777 135.709 302.777 134.819 302.777 134.079C302.477 132.299 298.777 132.589 297.587 131.999C295.067 130.969 293.287 128.589 291.667 126.669C290.037 124.589 288.257 122.369 287.067 119.849C286.327 118.519 285.887 117.039 284.697 115.849C284.107 115.259 283.367 114.819 282.777 114.219C281.437 112.739 281.437 110.519 280.257 108.889C279.957 108.449 279.667 108.299 279.067 108.149C277.887 107.849 276.697 107.849 275.517 107.409C273.147 106.519 270.477 107.699 268.107 108.299C266.917 108.599 265.587 108.889 264.257 108.889C262.917 108.889 261.737 108.889 260.547 109.339C259.367 109.629 253.287 112.739 255.367 114.219C255.667 114.519 256.107 114.669 256.257 114.969C256.397 115.259 256.257 115.699 256.107 115.999C255.517 117.479 254.627 118.969 253.437 119.999C250.627 122.819 247.217 125.039 243.807 126.819C242.917 127.259 242.037 127.709 241.147 128.149C240.397 128.449 239.067 128.739 238.477 129.339C237.287 130.369 240.257 133.039 240.997 134.079C242.477 136.299 242.037 139.109 243.217 141.339C244.547 143.709 245.587 147.109 245.287 149.779C245.887 149.929 246.327 150.669 246.477 151.109C246.627 151.709 246.477 152.299 246.327 152.739C245.737 155.109 245.147 158.079 243.517 159.999C241.737 162.079 238.777 163.859 236.547 165.489C235.367 166.519 234.037 167.409 232.547 167.999C231.517 168.449 230.327 168.449 229.147 168.589C226.627 168.889 223.957 169.039 221.437 169.629C219.217 170.079 216.847 169.189 215.067 167.709C213.287 166.219 211.807 164.299 210.477 162.369C209.147 160.589 207.957 158.669 206.627 156.889C205.887 155.709 204.997 154.519 204.547 153.189C203.667 150.519 204.697 147.859 203.957 145.189C203.367 142.669 202.037 140.449 200.257 138.669C199.517 137.929 198.627 137.339 197.887 136.449C197.147 135.559 196.697 134.519 196.697 133.489C194.917 130.669 191.517 129.339 189.287 126.819C187.667 125.039 186.627 122.819 186.327 120.599C186.177 119.409 186.327 118.669 185.737 117.479C185.287 116.299 184.547 115.409 183.667 114.519C182.917 113.779 182.177 113.189 181.587 112.449C180.997 111.699 180.697 110.669 180.997 109.629C179.667 109.629 178.327 108.599 176.997 108.739C172.997 108.889 169.587 110.969 166.177 112.599C162.177 114.369 158.177 116.299 153.887 116.889C142.777 118.519 136.257 128.449 129.147 136.149C127.957 137.339 126.917 138.519 125.587 139.709C124.547 140.739 123.517 141.779 122.177 142.519C120.257 143.559 118.327 144.449 116.397 145.339C115.517 145.779 114.477 146.079 113.737 146.519C113.297 146.819 112.257 147.259 111.957 147.709C111.807 147.999 111.807 148.299 111.957 148.589C112.107 149.489 112.397 150.369 112.697 151.259C113.437 151.709 114.177 152.589 114.477 153.489C115.217 155.709 115.657 157.929 115.807 160.149C115.957 162.079 116.107 163.999 116.257 165.929C116.547 167.999 116.107 169.489 115.367 171.559C114.917 172.739 114.477 173.929 114.027 175.109C113.737 175.999 113.437 176.739 112.847 177.629C111.807 179.259 110.327 180.299 108.997 181.629C108.547 182.219 108.257 182.819 107.957 183.259C107.367 183.999 106.477 184.449 105.737 184.889C101.877 186.969 98.0268 186.819 93.8818 186.519C89.8818 186.219 85.8818 185.339 82.7718 182.819C80.1038 180.589 78.4748 177.189 77.7328 173.779C76.9948 170.369 77.1428 166.819 77.5848 163.259C76.6978 163.109 75.8068 162.219 75.6588 161.339C75.5098 160.449 75.6588 159.559 75.9558 158.669C76.5488 156.449 77.5848 154.369 79.2168 152.739C79.5098 152.449 79.6588 151.709 79.5098 151.259C79.3618 150.819 79.2168 150.369 79.0688 149.929C78.9208 149.339 79.0688 148.739 78.9208 148.149C75.0688 146.219 71.8068 143.709 68.5488 140.889C66.7718 139.259 65.1428 137.489 63.8068 135.559C63.2168 134.519 62.6238 133.629 62.0298 132.449C61.5848 131.409 61.4358 130.219 60.9948 129.189C60.5488 127.999 59.6588 126.969 59.0688 125.779C58.4748 124.589 57.7328 123.259 57.1428 122.079C56.1038 119.849 55.2138 117.479 54.3268 115.259C53.4358 113.189 51.9558 111.699 50.7718 109.779C50.0298 108.739 49.4358 107.409 49.1388 106.219C48.5488 104.299 48.1038 102.669 46.7718 101.189C46.1778 100.599 45.4358 99.9991 44.9948 99.2591C44.4008 98.2191 44.2528 96.8891 44.4008 95.7031C44.5488 94.5191 44.8458 93.1871 44.8458 92.0001C44.9948 90.5191 44.6978 88.8911 43.6588 87.7031C42.9208 86.8161 42.0298 86.2231 41.1388 85.4841C39.2138 84.0001 37.8818 81.7771 37.1388 79.4101C36.6978 77.7771 35.3618 76.1481 34.1778 74.9651C29.4358 69.9261 25.5848 64.1481 21.8818 58.2231C22.1778 58.3711 22.3268 58.6681 22.6238 58.8161C20.2528 55.4061 17.8818 52.0001 15.3618 48.5941C14.6238 47.5551 13.7328 46.6681 13.2878 45.6291C12.8458 44.7421 12.5488 43.8511 11.9558 43.1131C10.7718 41.7771 9.28783 40.7421 8.25283 39.2581C7.36183 38.0741 6.62383 36.5941 5.58453 35.2581C3.51023 32.5941 1.28763 29.9261 0.400926 26.6681C-0.489774 23.5551 0.104026 20.0001 2.17823 17.4801C4.25243 14.9651 7.80683 13.7771 10.9168 14.9651C13.5848 15.8511 15.3618 18.2231 17.2878 20.2971C19.2138 22.5191 21.2878 24.4451 23.5098 26.2231C24.5488 26.9651 25.4358 27.7031 26.6238 27.8511C31.5098 28.8911 36.4008 30.3711 40.9948 32.2971C42.3268 32.8911 43.5098 33.3321 44.6978 34.2231C48.8458 37.6291 51.9558 42.2231 54.1778 47.1131C56.5488 52.1481 58.7718 56.8911 62.7718 60.7421C65.7328 63.5551 69.1428 65.9261 72.5488 68.2971C73.8818 69.1871 75.2168 70.0741 76.8458 70.2231C78.7718 70.3711 80.4008 69.3361 82.0298 68.2971C87.2168 65.1871 92.2528 61.9261 97.4368 58.8161C101.737 56.1481 105.147 52.4451 107.657 48.0001C109.737 44.4451 111.957 40.5941 113.877 37.0391C115.807 33.3321 116.847 28.8911 117.147 24.7421C117.297 23.1091 117.297 21.4801 118.027 20.1481C120.847 19.8511 123.517 20.0001 126.327 19.7031C126.177 17.4801 125.287 15.2581 123.957 13.4801C123.217 12.5941 122.177 11.5551 122.027 10.3711C121.877 8.8911 122.917 7.8511 123.067 6.6681C123.217 5.1836 122.917 3.4063 122.917 1.7774C122.917 1.3321 123.367 1.4805 123.807 1.3321C124.257 1.1836 124.697 1.1836 125.147 1.1836C128.697 1.0352 132.397 0.8907 135.957 0.8907C140.547 0.7422 144.997 0.1485 149.587 0C151.667 0 153.737 0 155.807 0.1485C157.437 0.2969 158.327 1.9258 158.477 3.4063C158.477 5.3321 156.997 6.9651 155.367 8.0001C153.737 9.0391 151.807 9.6291 150.327 10.8161C148.397 12.2971 147.067 14.8161 144.547 15.2581C143.957 15.4061 143.367 15.4061 142.917 15.7031C142.477 16.1481 142.477 17.0391 143.067 17.0391C143.367 17.0391 144.847 21.0391 145.147 21.4801C145.887 22.9651 146.627 24.5941 147.517 26.0741C148.397 27.8511 148.997 30.0741 150.627 31.4061C152.257 32.7421 156.107 30.3711 157.887 29.4801C163.067 26.9651 167.957 23.8511 173.287 21.6291C176.397 20.2971 180.397 20.1481 183.667 20.2971C188.397 20.4451 193.287 21.3321 197.587 23.2581C202.477 25.4801 207.517 27.2581 212.397 29.1841C215.217 30.3711 218.177 31.5551 220.847 33.1841C222.187 33.9261 223.517 34.8161 224.697 35.8511C225.737 36.7421 226.777 38.0741 228.257 38.0741C231.367 34.0741 234.187 29.6291 236.697 25.1841C238.327 22.3711 239.667 19.5551 240.847 16.5941C241.287 15.4061 241.887 14.5191 241.887 13.1841C242.037 11.4061 242.187 9.6291 242.327 7.8511C242.327 7.2581 242.477 6.8161 242.627 6.3711C243.367 5.0352 244.997 4.8907 246.187 4.2969C248.847 3.1094 251.217 3.2579 254.037 3.5547C256.107 3.7032 258.037 3.8516 260.107 3.8516C261.737 3.8516 263.367 4 263.667 5.9261C263.807 6.8161 263.367 7.8511 262.917 8.5941C262.327 9.3321 261.737 10.0741 260.997 10.6681C256.397 15.1091 253.887 20.7421 251.217 26.5191C248.397 32.4451 245.887 38.5191 243.517 44.7421C242.917 46.2231 242.327 47.7031 241.887 49.1871C241.587 49.7771 241.737 50.5191 241.437 51.1131C241.147 51.7031 240.697 52.4451 240.397 53.0391C239.667 54.5191 238.917 56.0001 238.187 57.3361C235.957 61.3361 233.287 64.8911 231.217 68.7421C229.587 71.7031 228.107 74.6681 226.327 77.4801C224.107 81.0391 221.437 84.2971 218.477 87.2621C218.917 87.8511 219.367 88.2971 219.807 88.8911C220.397 89.6291 220.997 90.5191 221.287 91.4101C221.587 92.4451 221.437 93.4841 221.287 94.5191C223.517 95.9991 225.737 96.7391 228.397 97.0391C229.437 97.1891 230.327 96.5991 231.367 96.4491C232.547 96.2991 233.737 96.5991 234.917 96.8891C235.667 97.7791 236.997 98.3691 238.037 98.8191C239.067 99.1091 240.107 99.4091 241.287 99.6991C241.887 99.8491 242.477 99.9991 242.777 100.449C243.067 100.739 243.217 101.189 243.217 101.629L256.997 101.629C258.037 101.039 258.917 100.599 259.957 100.149C260.997 99.6991 262.037 98.9691 263.217 98.9691C266.477 98.6691 270.037 99.2591 273.147 100.149C274.037 100.449 274.777 99.8491 275.517 99.5591C276.407 99.2591 277.147 98.6691 277.887 98.2191C278.777 97.6291 278.917 96.2991 279.367 95.4101C279.807 94.5191 280.547 93.9261 281.437 93.4841C282.327 93.0391 283.217 92.8911 284.257 92.7421C287.807 92.1481 291.217 92.7421 294.627 93.9261C294.327 92.0001 294.777 89.7771 295.807 88.1481C295.667 87.1131 295.217 86.3711 295.367 85.3361C295.517 84.5941 295.957 84.1481 296.107 83.5551C296.407 82.8161 295.957 82.5191 295.517 81.7771C294.627 80.5941 293.737 79.5551 292.407 78.9651C291.807 78.6681 291.067 78.5191 290.477 78.3711C289.147 77.7771 288.107 76.8911 286.917 76.0001C284.257 73.9261 281.287 72.4451 278.477 70.6681C277.587 70.0741 276.847 69.4801 276.257 68.7421C275.667 68.0001 275.217 66.9651 275.367 65.9261C274.627 64.5941 274.037 63.4061 273.287 62.0741C272.997 61.6291 272.847 61.1871 272.847 60.5941C272.847 60.0001 273.147 59.5551 273.437 58.9651C275.367 55.5551 276.107 51.7031 275.957 47.8511C275.807 45.1871 277.437 42.9651 278.327 40.4451C278.777 39.2581 279.217 37.9261 279.067 36.5941C278.917 35.4061 278.477 34.3711 278.187 33.1841C277.287 30.3711 278.037 26.5191 278.917 23.8511C279.667 21.7771 282.327 20.7421 281.287 18.2231C280.847 17.3321 280.107 16.5941 279.217 16.0001C278.327 15.4061 277.287 15.1091 276.407 14.8161C275.807 14.6681 275.367 14.3711 274.917 14.0741C274.477 13.7771 274.187 13.1841 274.187 12.5941C274.187 12.0001 274.627 11.4061 275.217 11.4061C275.807 10.6681 276.547 10.2231 277.437 10.2231C278.327 10.2231 279.217 10.3711 280.107 10.6681C284.107 11.5551 288.257 11.7031 292.257 11.8511C294.327 11.8511 295.517 11.5551 296.697 13.4801C297.587 14.8161 297.887 16.4451 297.437 17.9261C296.997 19.4061 296.407 20.7421 295.807 22.2231C295.667 22.8161 295.367 23.2581 295.517 23.8511C295.667 24.2971 295.807 24.5941 295.957 25.0391C296.107 25.6291 295.957 26.3711 295.807 26.9651C295.367 28.7421 295.067 30.5191 294.627 32.2971C294.037 35.1131 294.327 37.9261 294.477 40.7421C294.627 43.1131 293.737 45.7771 294.777 48.1481C295.667 50.0741 297.737 51.2621 299.807 52.0001C301.287 52.5941 303.217 53.7771 304.847 53.9261C306.917 54.0741 309.287 53.6291 311.217 53.3321C315.367 52.8911 319.667 52.2971 323.807 51.4061C326.917 50.8161 330.037 50.9651 332.847 49.6291C334.627 48.8911 336.107 47.7031 337.587 46.5191C340.407 44.2971 343.367 41.9261 345.737 39.2581C350.627 33.7771 355.957 28.7421 359.667 22.3711C361.287 19.7031 363.517 16.2971 366.777 15.4061C368.107 15.1091 369.587 15.1091 370.777 15.7031C371.517 14.3711 370.927 12.2971 370.187 11.1091C369.887 10.5201 369.437 10.0741 369.147 9.4801C368.697 8.4451 368.847 7.4061 368.997 6.3711C369.147 5.6289 370.327 5.1836 371.077 5.0352C374.777 4.8907 378.327 4.8907 382.037 5.1836C383.077 5.9261 383.217 6.8161 383.217 8.1481C383.077 9.3321 382.627 10.5201 382.187 11.7031C381.437 13.6291 380.997 15.4061 379.807 17.1841C379.077 18.2231 378.927 19.7031 378.477 20.7421C378.037 21.7771 377.737 22.5191 376.997 23.4061C375.217 25.4801 373.737 27.7031 372.257 29.9261C370.037 33.4801 367.957 37.1871 366.327 41.0391C364.997 44.2971 364.697 48.1481 361.287 50.0741C359.807 50.9651 359.517 53.3321 358.477 54.8161C358.037 55.5551 357.587 56.2971 357.287 57.0391C356.997 58.0741 356.997 59.1131 356.557 60.1481C355.667 62.3711 352.697 63.5551 352.407 65.9261C352.257 66.5191 352.407 67.2621 351.957 67.7031C351.367 68.4451 350.037 68.2971 349.887 69.1871C349.147 69.6291 348.847 70.6681 348.847 71.5551C348.697 72.4451 348.847 73.4801 348.697 74.3711C348.407 75.7031 347.667 76.7421 346.777 77.9261C345.437 79.7031 344.107 81.4841 342.777 83.4101C342.327 84.0001 341.737 84.5941 341.437 85.3361C341.147 86.2231 341.147 86.9651 340.257 87.5551C339.667 88.0001 339.067 88.1481 338.627 88.5941C338.037 89.4841 338.327 90.6681 338.627 91.7031C339.067 93.7771 338.627 95.8491 338.037 97.9291C339.067 98.3691 339.067 99.5591 339.667 100.599C340.257 101.479 341.287 102.519 342.327 102.079C343.067 101.779 343.367 101.039 344.107 100.739C344.557 100.599 344.997 100.599 345.437 100.599C349.587 100.599 353.737 99.1091 357.887 98.2191C360.997 97.6291 364.107 97.3391 367.367 97.0391C368.997 96.8891 371.517 96.2991 372.997 96.7391C374.327 97.1891 375.367 98.8191 375.367 100.149C376.107 100.889 376.997 100.739 378.037 100.599C378.927 100.449 379.957 100.449 380.847 100.299C381.587 100.299 382.327 100.149 383.077 100.149C383.957 100.149 384.697 100.299 385.587 100.449C386.327 100.739 387.217 101.039 387.517 101.929C388.107 102.079 388.697 102.219 389.437 102.369C389.587 102.369 389.887 102.519 390.037 102.519C390.187 102.669 390.327 102.969 390.477 103.259C390.627 103.559 390.627 103.699 390.777 103.999L518.927 107.999C518.927 106.969 519.217 105.929 519.667 105.039C520.407 105.039 521.447 105.039 522.187 105.479C522.627 105.339 522.927 104.889 523.217 104.599C523.967 103.999 524.997 103.999 525.887 104.149C526.327 103.699 527.367 103.409 527.967 103.409C528.707 103.409 529.297 103.699 530.037 103.849C531.367 103.409 532.407 103.259 533.587 103.849C534.187 104.149 534.477 103.259 534.777 102.669C535.077 102.079 535.217 101.479 535.817 101.039C536.407 100.739 536.997 100.739 537.737 100.739C539.517 100.889 541.297 101.189 542.927 101.479C547.077 102.079 550.777 101.339 554.927 101.479C558.477 101.629 561.887 102.219 565.297 102.969C571.217 104.149 577.297 106.079 582.777 102.519C583.077 101.629 583.817 100.599 583.967 99.6991C584.117 99.2591 584.257 98.9691 584.557 98.6691C584.997 98.3691 585.587 98.2191 586.037 98.2191C588.257 98.0791 590.627 98.2191 592.847 98.3691C594.187 98.5191 595.517 98.0791 596.847 98.0791C598.187 97.9291 599.517 97.6291 600.407 96.7391C601.447 95.7031 601.587 94.3711 602.037 93.0391C602.487 91.8511 602.337 90.3711 603.077 89.4841C604.117 88.2971 606.037 88.2971 607.217 87.2621C607.967 86.6681 607.077 85.1871 606.487 84.5941C605.887 84.0001 604.997 83.7031 604.117 83.5551C603.217 83.4101 602.337 83.2621 601.587 82.8161C599.367 81.7771 598.187 78.9651 595.817 78.3711C594.927 78.0741 593.887 78.2231 592.997 77.9261C591.817 77.6291 590.777 76.7421 589.737 76.0001C587.367 74.5191 584.407 74.5191 581.887 73.1871C579.367 71.8511 577.297 69.7771 575.517 67.7031C572.407 64.2971 569.737 60.5941 566.927 56.8911C565.737 55.2621 564.847 53.4801 563.517 51.8511C562.187 50.0741 560.707 48.4451 559.217 46.8161C557.587 45.0391 556.117 43.1131 554.927 41.0391C554.327 40.0001 553.737 38.9651 553.447 37.7771C552.997 36.4451 552.257 35.7031 551.367 34.6681C548.407 31.1131 545.447 27.4061 542.037 24.1481C541.737 23.8511 541.447 23.5551 541.297 23.1091C541.147 22.6681 541.297 22.0741 541.447 21.6291C541.447 21.6291 536.257 19.1131 535.817 18.8161C532.107 16.4451 528.707 14.2231 524.257 13.9261C523.367 13.9261 522.477 13.9261 521.587 13.4801C520.707 13.0391 520.107 12.1481 520.407 11.2581C520.707 10.0741 521.887 9.6291 523.077 9.0391C524.257 8.4451 525.587 8.4451 526.777 8.5941C530.477 9.4801 534.037 8.1481 537.737 8.2971C541.447 8.4451 544.847 8.0001 548.407 7.2581C550.777 6.6681 553.147 6.2231 555.517 6.5201C556.557 6.6681 556.997 6.6681 557.737 7.7031C558.327 8.5941 558.627 9.6291 558.777 10.6681C561.737 9.9261 564.257 13.3321 566.037 15.2581C568.257 17.6291 570.627 20.0001 572.847 22.5191C576.847 26.8161 580.707 31.4061 584.407 36.1481C587.367 39.8511 590.187 43.5551 592.847 47.4061C592.407 44.4451 590.777 41.7771 590.187 38.9651C590.037 38.3711 590.187 37.6291 590.187 37.0391C590.337 35.5551 590.037 34.2231 589.447 32.7421C587.967 29.3321 586.187 26.6681 584.257 23.4061C583.667 22.3711 583.077 21.4801 582.927 20.2971C582.627 19.1131 583.517 17.9261 583.077 16.8911C582.337 15.4061 580.557 14.0741 579.517 12.8911C577.147 10.2231 574.927 7.7031 572.557 5.0352C572.257 4.7422 571.967 4.2969 571.817 3.8516C571.667 3.4063 571.817 2.8164 572.117 2.5196C572.257 1.6289 573.297 1.3321 574.187 1.3321C578.037 1.3321 581.887 1.6289 585.587 2.5196C586.627 2.0743 587.967 2.2227 588.997 2.9649C590.337 2.8164 591.817 2.668 593.147 2.668C594.477 2.668 595.817 2.8164 596.847 3.4063C598.037 4 598.777 5.3321 598.487 6.6681C598.187 8.1481 598.777 9.4801 599.367 10.8161C599.667 11.7031 600.117 12.5941 600.407 13.3321C600.847 14.5191 602.187 14.0741 602.927 15.1091C603.217 15.5551 603.217 16.0001 603.367 16.4451C603.667 17.1841 603.967 17.9261 604.407 18.6681C606.187 22.2231 607.967 25.6291 609.737 29.1841C611.667 32.8911 613.297 36.7421 614.927 40.5941C615.667 42.5191 616.407 44.4451 617.147 46.5191C617.737 48.0001 617.887 49.9261 619.367 50.9651C620.847 52.0001 622.927 52.0001 624.557 52.5941C626.487 53.1871 628.847 52.8911 630.927 53.1871C635.517 53.7771 640.117 54.9651 644.407 56.7421C650.637 59.2621 655.367 65.0391 657.147 71.5551C657.447 72.7421 657.447 74.0741 658.487 74.8161C658.927 75.2621 659.517 75.5551 659.967 76.0001C660.407 76.5941 660.707 77.1871 660.997 77.9261C662.187 81.1871 665.587 87.1131 662.037 90.0741C661.587 90.5191 660.997 90.8161 660.407 91.2621C658.037 93.3361 658.777 97.0391 658.487 99.8491C658.337 101.189 657.887 102.519 656.847 103.409C655.817 104.449 654.337 104.889 653.147 105.479C652.257 105.929 651.077 106.969 650.777 107.999C650.487 109.189 651.367 110.669 651.667 111.699C652.407 109.929 653.587 107.699 655.217 106.819C656.847 105.929 658.777 106.079 660.407 106.819C662.187 107.699 662.637 109.189 663.817 110.669C664.997 112.149 667.367 112.599 669.147 113.039C672.997 113.929 676.707 115.109 680.257 116.739C682.037 117.629 683.667 118.669 685.297 119.849C686.927 121.039 688.407 122.219 690.337 122.669C690.777 120.739 689.737 118.819 689.587 116.889C689.587 116.149 689.737 115.409 690.187 114.969C689.587 113.629 689.007 112.449 688.857 110.969C688.707 110.369 688.707 109.629 689.297 109.189C687.367 108.599 685.587 107.999 684.117 106.669C682.487 105.339 681.297 103.559 680.117 101.779C676.997 97.3391 673.737 92.7421 670.637 88.2971C670.187 87.7031 669.737 86.9651 669.587 86.2231C669.447 85.4841 669.737 84.5941 670.487 84.2971C671.517 82.3711 671.667 80.0001 671.367 77.7771C670.037 77.3361 669.147 76.1481 668.407 74.9651C667.667 73.7771 667.217 72.4451 666.777 71.1131C666.037 68.7421 665.297 66.3711 664.707 64.0001C664.407 62.9651 664.257 62.0741 664.117 61.0391C663.967 60.0001 663.517 59.1131 663.077 58.0741C661.147 53.4801 659.517 48.7421 658.037 43.8511C657.447 41.7771 656.257 40.2971 655.077 38.3711C654.637 37.7771 654.337 36.8911 654.487 36.2971C654.777 35.4061 655.967 35.1131 655.967 34.0741C655.967 33.3321 655.817 32.2971 655.367 31.7031C654.777 31.2581 654.037 30.9651 653.447 30.5191C651.667 29.1841 650.927 26.5191 651.967 24.4451C651.667 21.6291 651.217 18.9651 651.367 16.1481C651.367 12.8911 651.817 7.8511 655.367 6.8161C656.557 6.3711 657.737 6.5201 658.927 6.5201C661.587 6.5201 664.257 6.5201 666.927 6.5201C667.667 6.5201 668.557 6.5201 669.297 6.8161C670.187 7.1091 670.637 7.8511 670.487 8.5941C670.187 10.8161 670.927 13.3321 670.187 15.5551C669.887 16.2971 669.587 17.1841 669.447 17.9261C669.147 19.5551 669.447 21.1841 669.587 22.8161C669.737 24.4451 669.737 26.2231 668.707 27.5551C669.587 27.2581 670.927 26.9651 671.667 27.5551C672.117 28.0001 672.257 28.5941 672.257 29.1841C672.257 29.7771 672.257 30.3711 672.407 30.9651C674.037 36.5941 675.817 41.4801 677.887 46.9651C678.337 48.2971 678.927 49.6291 679.667 50.6681C680.707 52.0001 682.337 52.8911 682.777 54.5191C683.077 54.8161 683.967 54.5191 684.257 54.2231C684.557 53.9261 684.557 53.6291 684.557 53.1871C685.007 49.9261 685.147 46.5191 684.857 43.1131C684.707 41.6291 684.407 40.1481 684.407 38.6681C684.407 37.0391 683.817 35.5551 683.667 33.9261C683.517 32.5941 683.967 31.2581 684.557 30.0741C685.007 29.3321 684.257 28.7421 683.667 28.2971C683.077 27.8511 682.187 27.5551 681.737 26.8161C681.447 26.3711 681.447 25.6291 681.447 25.0391C681.447 21.7771 681.447 18.5191 681.447 15.1091C682.487 13.4801 681.887 11.1091 683.217 9.4801C684.117 8.2971 685.737 8.1481 687.217 8.0001C693.447 7.5551 699.517 7.5551 705.737 8.0001C707.077 8.1481 708.707 8.2971 708.707 9.9261C708.707 11.7031 708.117 13.3321 707.217 14.8161C706.187 16.2971 705.007 17.6291 703.517 18.8161C702.487 19.7031 701.297 20.7421 700.707 21.9261C700.117 23.1091 699.967 24.8911 701.007 25.9261C701.447 26.3711 702.187 26.8161 702.187 27.5551C703.077 28.5941 702.487 29.9261 702.337 31.4061C701.887 34.8161 703.217 38.2231 704.407 41.3321C705.147 43.4061 705.887 45.6291 705.887 47.8511C705.887 49.7771 705.147 51.2621 706.777 52.8911C707.817 53.9261 709.147 54.3711 710.487 54.9651C711.817 55.4061 713.147 56.0001 714.187 56.8911C714.927 57.6291 715.517 58.5191 716.117 59.2621C717.737 61.7771 719.517 64.2971 721.147 66.8161L721.587 66.0741C722.927 67.2621 724.857 67.7031 726.777 67.8511C728.557 67.8511 730.487 67.7031 732.257 67.8511C734.037 68.0001 735.967 68.7421 737.147 70.2231C737.447 70.5191 737.587 70.9651 738.037 71.2621C738.337 71.4101 738.777 71.5551 739.227 71.5551C741.447 71.7031 743.667 71.7031 745.887 72.2971C748.117 72.8911 750.487 73.4801 752.707 74.0741C753.587 74.3711 754.637 74.6681 755.077 75.4101C755.667 76.2971 755.517 77.4801 755.227 78.3711C754.337 81.4841 753.737 84.5941 752.707 87.5551C751.667 90.8161 750.337 93.9261 749.147 97.1891C747.817 100.449 746.637 103.699 745.297 107.109C744.707 108.599 744.407 110.369 743.377 111.559C742.487 112.739 741.887 113.629 742.187 115.109C742.337 116.449 742.927 117.479 743.377 118.669C745.007 122.369 746.337 126.519 746.777 130.519C746.927 132.299 748.407 133.189 749.737 134.219C751.377 135.559 753.007 136.589 754.777 137.629C755.227 137.929 755.667 138.219 755.967 138.519L756.557 138.669L767.227 141.339C768.257 140.449 770.037 139.999 771.077 140.449C771.967 139.559 773.587 139.559 774.487 140.589C774.337 139.999 774.487 139.259 774.927 138.819C775.377 138.369 776.117 138.219 776.707 138.369C777.297 138.519 777.737 138.969 778.487 138.969C778.777 138.969 779.227 138.669 779.517 138.669C780.557 138.519 781.297 139.409 781.737 140.299C782.187 141.189 782.487 142.219 783.227 142.819C784.407 143.849 786.187 144.299 787.667 144.449C789.147 144.589 790.777 144.449 792.257 144.149C793.597 143.999 794.927 143.709 796.257 143.559C796.117 141.779 794.927 139.999 793.737 138.669C792.557 137.339 791.227 136.299 790.187 134.819C788.857 132.889 788.707 130.519 787.667 128.449C786.337 125.779 785.297 123.109 784.117 120.299C783.517 118.969 782.927 117.779 782.187 116.599C781.597 115.699 780.857 114.819 780.257 113.929C779.517 112.739 778.927 111.409 778.337 110.079C777.297 107.699 776.257 105.189 775.227 102.819C773.737 99.2591 773.297 94.8161 771.227 91.7031C770.487 90.3711 769.447 89.1871 768.557 88.0001C766.337 84.8911 764.707 81.3361 763.227 77.9261C762.777 77.0391 762.187 76.1481 761.447 75.5551C760.707 74.9651 759.817 74.5191 759.227 73.9261C758.037 72.8911 757.297 71.4101 756.407 70.0741C754.337 67.2621 751.517 65.4801 749.737 62.5191C747.667 59.1131 744.557 56.0001 741.887 52.8911C740.707 51.4061 739.367 49.9261 738.187 48.4451C735.667 45.6291 733.147 42.8161 730.637 40.0001C729.297 38.5191 727.967 37.0391 727.227 35.1131C727.367 35.2581 727.367 35.4061 727.517 35.5551C726.927 34.0741 726.637 32.5941 726.187 31.1131C725.447 28.7421 725.007 26.2231 724.557 23.8511C724.257 22.5191 724.557 22.0741 725.007 20.8911C725.887 18.6681 722.337 16.1481 722.337 13.7771C722.337 12.4451 722.927 11.2581 723.517 10.0741C723.967 9.1831 724.557 7.8511 725.737 7.5551C727.077 7.2581 728.857 7.4061 730.187 7.4061C732.857 7.4061 735.517 6.9651 738.187 7.1091C740.117 7.1091 742.487 9.1831 743.077 10.9651C743.517 12.2971 743.227 13.9261 742.637 15.2581C742.037 16.5941 741.297 17.9261 740.707 19.2581C740.407 20.1481 739.517 23.1091 741.147 23.2581C741.447 23.2581 741.737 23.2581 742.187 23.2581C743.077 23.4061 743.377 23.8511 743.667 24.5941C744.117 25.4801 744.707 26.0741 745.447 26.6681C746.927 28.0001 748.557 28.8911 750.187 29.9261C754.777 32.8911 758.637 37.0391 762.037 41.1871C762.777 42.0741 763.517 43.1131 764.257 44.0001C765.297 45.0391 766.777 45.9261 768.117 46.8161C770.637 48.7421 773.147 50.5191 775.667 52.4451C777.147 53.4801 778.637 54.6681 779.517 56.1481C780.117 57.1871 780.557 58.3711 781.297 59.2621C782.337 60.4451 784.117 61.0391 785.597 61.7771C787.667 62.9651 788.557 64.8911 790.037 66.6681C791.667 68.5941 793.737 69.7771 795.667 71.2621C802.637 76.5941 805.447 85.9261 811.967 91.5551C819.817 90.0741 827.967 88.2971 835.377 85.1871C841.447 82.6681 848.557 81.6291 855.077 80.8911C857.297 80.5941 859.517 80.5941 861.597 80.0001C865.747 78.5191 872.117 77.1871 872.857 72.0001C873.297 69.0391 871.967 66.5191 871.517 63.7031C871.077 61.1871 870.637 58.9651 869.747 56.4451C867.817 50.6681 865.897 44.8911 863.967 38.9651C863.227 36.5941 862.487 33.9261 863.667 31.8511C863.667 29.3321 862.927 27.1131 862.187 24.5941C860.857 20.5941 859.077 15.7031 863.967 13.3321C866.037 12.2971 868.407 12.4451 870.637 12.4451C882.777 12.5941 894.777 12.7421 906.927 12.7421C908.407 12.7421 907.967 14.6681 906.927 15.8511C905.897 16.8911 904.267 17.3321 902.777 17.6291C898.487 18.6681 894.487 20.2971 890.777 22.5191C889.447 23.4061 887.967 24.2971 887.227 25.7771C886.337 27.2581 886.337 29.1841 887.517 30.3711C888.707 31.5551 889.447 32.1481 889.897 33.6291C891.227 38.0741 890.337 42.8161 891.817 47.2581C893.597 53.0391 895.517 58.6681 897.297 64.4451C899.967 72.8911 904.557 83.8511 898.777 92.0001C895.377 96.8891 889.597 98.0791 884.257 100.149C876.857 103.109 869.447 106.079 862.037 108.739C861.597 108.889 861.147 109.039 860.857 109.479C860.557 110.079 860.857 110.669 861.147 111.259C861.597 111.849 862.337 112.449 863.077 112.739C863.517 112.889 863.967 113.039 864.407 113.339C864.707 113.629 865.007 113.929 865.147 114.219C866.037 115.109 867.517 115.409 868.857 115.409C871.077 115.559 873.147 115.699 875.377 115.849C877.147 115.999 877.897 116.599 879.377 117.779C882.487 120.449 885.447 123.259 888.257 126.219C894.037 132.149 899.227 138.819 903.667 145.779C904.557 147.109 905.297 148.449 905.747 150.079C906.637 153.629 905.007 157.339 903.377 160.589C903.667 161.039 903.817 161.039 904.267 161.039C904.707 161.039 905.297 161.039 905.747 161.039C906.927 161.189 907.077 162.079 907.967 162.519C908.857 163.109 909.897 162.969 910.927 163.109C911.967 163.259 912.857 163.859 913.747 164.299C915.817 165.489 917.147 167.409 919.077 168.589C922.187 170.519 925.747 171.709 929.007 173.489C932.117 175.109 935.667 177.189 937.447 180.149C938.777 182.369 939.817 184.589 940.557 187.109C941.297 189.189 942.037 191.859 941.597 194.219Z"/>
   <path id="shape6" transform="matrix(1.24999 0 0 -1.24999 -400.217 395.024)" fill="#ffc80d" stroke="#ffc80d" stroke-width="0.00000000000" stroke-linecap="butt" stroke-linejoin="miter" stroke-miterlimit="10.43299961090" d="M7.11 10.9913L7.25 10.9213L7.39 10.8513L7.69 10.7113L8 10.5713L8.32 10.4213L8.65 10.2713L8.98 10.1213L9.3 9.97128L9.63 9.80128L9.94 9.63128L10.25 9.45128L10.39 9.36128L10.54 9.27128L10.68 9.17128L10.82 9.07128L10.95 8.97128L11.07 8.86128L11.19 8.76128L11.31 8.65128L11.42 8.53128L11.52 8.42128L11.61 8.30128L11.7 8.17128C12.15 7.58128 12.29 6.99128 12.74 6.54128C13.78 5.51128 15.4 5.21128 16.89 5.06128C18.96 4.91128 20.74 6.25128 22.66 6.99128C23.11 7.13128 23.7 7.43128 24.29 7.28128C24.74 7.13128 25.18 6.84128 25.63 6.54128C27.4 5.06128 29.18 3.58128 30.81 2.10128L30.67 1.80128C25.48 0.61128 20.59 -0.41872 15.26 0.17128C12.59 0.47128 10.07 0.91128 7.4 1.06128C6.22 1.21128 4.88 1.21128 3.55 1.21128C2.96 1.21128 0.44 1.36128 0 0.91128C2.96 3.73128 5.33 7.28128 7.11 10.9913Z"/>
   <path id="shape7" transform="matrix(1.24999 0 0 -1.24999 -406.33 468.512)" fill="#ffc80d" stroke="#ffc80d" stroke-width="0.00000000000" stroke-linecap="butt" stroke-linejoin="miter" stroke-miterlimit="10.43299961090" d="M59.7 48.152L59.69 48.122L59.67 48.092L59.65 48.062L59.62 48.022L59.6 47.992L59.57 47.952L59.53 47.922L59.5 47.882L59.46 47.842L59.43 47.802L59.39 47.762L59.35 47.722L59.27 47.642L59.18 47.552L59.1 47.473L59.02 47.391L58.98 47.351L58.94 47.311L58.91 47.272L58.87 47.233L58.84 47.195L58.8 47.159L58.77 47.123L58.75 47.089L58.72 47.055L58.7 47.024L58.68 46.993L58.67 46.965C57.63 45.629 56.59 44.148 55.56 42.816C54.67 41.629 53.48 40.445 52.89 39.113C51.7 36.445 50.22 34.074 48.59 31.554C45.18 26.371 41.33 21.629 37.92 16.445C34.37 11.109 30.96 5.777 27.7 0.148L26.96 0C24.59 4.89 24.74 10.519 22.67 15.554C20.59 20.594 18.96 25.629 15.7 30.222C13.77 32.89 12.29 35.406 10.22 37.777C7.41 41.039 4.29 44 1.04 46.668C0.44 47.113 0 47.852 0 48.592C5.33 48.592 10.81 48.892 16.15 49.782C18.81 50.222 21.33 50.672 24 50.962C29.04 51.402 33.63 51.702 38.52 50.812C40.44 50.372 42.67 50.072 44.74 50.672C45.48 50.962 45.92 51.402 46.67 51.702C47.56 52.152 48.44 52.442 49.48 52.592C51.11 52.892 52.74 53.182 53.92 54.222C55.56 54.522 57.18 54.072 58.81 53.482C59.11 52.302 59.41 51.112 59.41 49.922C59.7 49.482 59.85 48.592 59.7 48.152Z"/>
   <path id="shape8" transform="matrix(1.24999 0 0 -1.24999 -243.368 398.51)" fill="#ffc80d" stroke="#ffc80d" stroke-width="0.00000000000" stroke-linecap="butt" stroke-linejoin="miter" stroke-miterlimit="10.43299961090" d="M2.67 0L2.5 0.14L2.34 0.28L2.02 0.55L1.71 0.82L1.39 1.09L1.23 1.22L1.07 1.35L0.9 1.48L0.73 1.6L0.55 1.72L0.37 1.84L0.19 1.96L0 2.07C1.48 2.96 3.11 2.67 4.74 2.96C6.22 3.11 7.56 3.7 8.89 4.3C9.19 4.44 12.59 1.04 13.04 0.74C13.33 0.44 13.63 0.15 14.07 0Z"/>
   <path id="shape9" transform="matrix(1.24999 0 0 -1.24999 -62.0692 392.035)" fill="#ffc80d" stroke="#ffc80d" stroke-width="0.00000000000" stroke-linecap="butt" stroke-linejoin="miter" stroke-miterlimit="10.43299961090" d="M0 0L0 0C0.15 0 0.29 0 0.29 0C0.29 0 0.15 0 0 0Z"/>
  </g>
 </g>
</svg>
