<?xml version="1.0" encoding="UTF-8"?>
<svg viewBox="0 0 595.276 841.89" xmlns="http://www.w3.org/2000/svg" xmlns:inkscape="http://www.inkscape.org/namespaces/inkscape" height="841.89pt" version="1.1" width="595.276pt" xmlns:xlink="http://www.w3.org/1999/xlink">
 <defs>
  <clipPath id="Clip0">
   <path d="M0 0 L142.235 0 L142.235 142.235 L0 142.235 L0 0 Z"/>
  </clipPath>
  <clipPath id="Clip1">
   <path d="M0 0 L142.235 0 L142.235 142.235 L0 142.235 L0 0 Z"/>
  </clipPath>
 </defs>
 <g inkscape:groupmode="layer" inkscape:label="Background" id="Background">
  <g style="fill:none; stroke:none" clip-path="url(#Clip0)" id="Group2" clip-rule="evenodd" transform="translate(268.507, 188.257) scale(1, 1)">
   <g style="fill:none; stroke:none" clip-path="url(#Clip1)" id="Group1" clip-rule="evenodd" transform="translate(0, 0) scale(1, 1)">
    <path style="fill:#05386b; fill-rule:evenodd;stroke-width:5.11638; stroke-linecap:butt; stroke-linejoin:miter; stroke-dasharray:none; stroke:#ffffff;" d="M137.119 68.5596 C137.119 106.425 106.425 137.119 68.5596 137.119 C30.6952 137.119 0 106.425 0 68.5596 C0 30.6952 30.6952 0 68.5596 0 C106.425 0 137.119 30.6952 137.119 68.5596 Z" id=" path7168-8-2" transform="translate(2.55819, 2.55819)"/>
    <path style="fill:#ecf5e1; fill-rule:nonzero;stroke:none;" d="M62.6473 19.853 C65.4904 21.0295 67.6963 22.8432 69.2649 25.2942 C70.9316 27.6471 71.7649 30.2942 71.7649 33.2354 C71.7649 36.3727 70.9316 39.1178 69.2649 41.4707 C67.6963 43.8237 65.4904 45.5394 62.6473 46.6178 L13.6765 65.5884 C12.1079 66.1767 10.5883 66.4708 9.11768 66.4708 C6.47061 66.4708 4.26472 65.6375 2.50001 63.9708 C0.833336 62.2061 -2.27374e-13 59.9512 0 57.2061 C-2.27374e-13 55.5394 0.441178 54.1178 1.32353 52.9413 C2.20589 51.6668 3.43138 50.6864 5.00002 50.0002 L48.6766 33.2354 L5.00002 16.4706 C3.43138 15.8824 2.20589 14.951 1.32353 13.6765 C0.441178 12.402 -2.27374e-13 10.9314 0 9.26474 C-2.27374e-13 6.51963 0.833336 4.31374 2.50001 2.64707 C4.26472 0.882356 6.47061 0 9.11768 0 C10.4902 0 12.0098 0.294119 13.6765 0.882356 L62.6473 19.853 Z" id=" path7170-7-7" transform="translate(37.1864, 35.0945)"/>
   </g>
  </g>
 </g>
</svg>
